<?xml version="1.0" encoding="utf-8"?>
<!-- Generator: Adobe Illustrator 24.1.0, SVG Export Plug-In . SVG Version: 6.00 Build 0)  -->
<svg version="1.1" id="Layer_1" xmlns="http://www.w3.org/2000/svg" xmlns:xlink="http://www.w3.org/1999/xlink" x="0px" y="0px"
	 viewBox="0 0 34 31.8" style="enable-background:new 0 0 34 31.8;" xml:space="preserve">
<style type="text/css">
	.st0{fill:#FFFFFF;}
</style>
<g>
	<g>
		<g>
			<path class="st0" d="M32.4,16.4c-0.6,0.2-1.1,0.5-1.5,0.8c-0.5,0.4-0.9,0.8-1.2,1.4c-0.3,0.5-0.5,1.1-0.5,1.8
				c0,0.8,0.2,1.5,0.6,2s0.8,1,1.3,1.5s0.9,1,1.3,1.5c0.4,0.6,0.6,1.2,0.6,2c0,0.6-0.2,1.1-0.5,1.6s-0.7,1-1.1,1.4
				c-0.5,0.4-0.9,0.7-1.4,0.9c-0.5,0.2-0.9,0.3-1.2,0.3c-0.2,0-0.4-0.1-0.6-0.2S28,31.1,28,30.9c0-0.3,0.1-0.5,0.2-0.8
				c0.4,0,0.8,0,1.2,0c0.5,0,0.9-0.1,1.2-0.2c0.4-0.1,0.7-0.3,0.9-0.6c0.2-0.3,0.4-0.8,0.4-1.4c0-0.7-0.2-1.4-0.6-1.9
				s-0.9-1.1-1.4-1.6s-1-1.1-1.4-1.8c-0.4-0.6-0.6-1.5-0.6-2.5c0-0.6,0.1-1.1,0.4-1.6s0.6-0.9,1-1.3s0.9-0.7,1.4-1
				c0.5-0.3,1.1-0.5,1.7-0.6v-0.1C31,15.6,29.9,15,29,14.3c-0.9-0.8-1.3-1.7-1.3-2.9c0-1,0.2-1.8,0.6-2.5c0.4-0.6,0.9-1.2,1.4-1.8
				c0.5-0.5,1-1.1,1.4-1.6s0.6-1.2,0.6-2c0-0.6-0.1-1.1-0.4-1.4s-0.6-0.5-0.9-0.6c-0.4-0.1-0.8-0.2-1.2-0.2c-0.4,0-0.8,0-1.2,0
				c-0.1-0.3-0.2-0.5-0.2-0.8c0-0.2,0.1-0.4,0.2-0.5c0.3,0.1,0.5,0,0.7,0c0.3,0,0.7,0.1,1.2,0.3s1,0.5,1.4,0.9
				c0.5,0.4,0.8,0.8,1.2,1.4c0.3,0.5,0.5,1,0.5,1.6c0,0.9-0.2,1.6-0.6,2.1c-0.4,0.5-0.8,1-1.3,1.5s-0.9,1-1.3,1.5s-0.6,1.2-0.6,2
				c0,0.7,0.2,1.3,0.5,1.9c0.3,0.6,0.7,1,1.2,1.4s1,0.6,1.5,0.8c0.6,0.2,1.1,0.3,1.6,0.3v0.5C33.5,16.2,33,16.3,32.4,16.4z"/>
		</g>
		<g>
			<path class="st0" d="M1.6,15.3c0.6-0.2,1.1-0.5,1.5-0.8c0.5-0.4,0.9-0.8,1.2-1.4c0.3-0.5,0.5-1.1,0.5-1.8c0-0.8-0.2-1.5-0.6-2
				s-0.8-1-1.3-1.5S2,6.8,1.6,6.3C1.3,5.7,1.1,5,1.1,4.2c0-0.6,0.2-1.1,0.5-1.6s0.7-1,1.1-1.4c0.5-0.4,0.9-0.7,1.4-0.9S5,0,5.3,0
				c0.2,0,0.4,0.1,0.6,0.2C6,0.3,6.1,0.5,6.1,0.7C6.1,1,6,1.2,5.9,1.5c-0.4,0-0.8,0-1.2,0c-0.5,0-0.9,0.1-1.2,0.2
				c-0.4,0-0.8,0.2-1,0.5S2.1,3,2.1,3.6c0,0.7,0.2,1.4,0.6,1.9c0.5,0.5,1,1,1.5,1.5s1,1.1,1.4,1.8c0.4,0.6,0.6,1.5,0.6,2.5
				c0,0.6-0.1,1.1-0.4,1.6c-0.2,0.5-0.6,0.9-1,1.3c-0.4,0.4-0.9,0.7-1.4,1s-1.1,0.5-1.7,0.6v0.1C3,16.2,4,16.8,4.9,17.5
				c0.9,0.8,1.3,1.7,1.3,2.9c0,1-0.2,1.8-0.6,2.5c-0.4,0.6-0.9,1.2-1.4,1.8c-0.5,0.5-1,1.1-1.4,1.6s-0.6,1.2-0.6,2
				c0,0.6,0.1,1.1,0.4,1.4s0.6,0.5,0.9,0.6c0.4,0.1,0.8,0.2,1.2,0.2c0.4,0,0.8,0,1.2,0C6,30.8,6.1,31,6.1,31.3
				c0,0.2-0.1,0.4-0.2,0.5C5.7,31.9,5.6,32,5.3,32c-0.3,0-0.7-0.1-1.2-0.3s-1-0.5-1.4-0.9c-0.5-0.4-0.8-0.8-1.2-1.4
				c-0.3-0.5-0.5-1-0.5-1.6c0-0.9,0.2-1.6,0.6-2.1s0.8-1,1.3-1.5s0.9-1,1.3-1.5c0.4-0.5,0.6-1.2,0.6-2c0-0.7-0.2-1.3-0.5-1.9
				s-0.7-1-1.2-1.4s-1-0.6-1.5-0.8C1,16.2,0.5,16.1,0,16.1v-0.5C0.5,15.6,1,15.5,1.6,15.3z"/>
		</g>
		<path class="st0" d="M19,25.2c-1.6,1.3-2.9,1.9-4,1.9c-1.7,0-3-0.6-4-1.9c-1-1.2-1.4-2.9-1.4-4.9c0-2.3,0.7-4.1,2.2-5.6
			c1.3-1.3,2.9-1.9,4.8-1.9c0.3,0,0.7,0,1.1,0.1s0.7,0.2,1,0.3s0.4,0.1,0.4,0.1c0.2,0,0.3-0.1,0.3-0.3V9c0-0.7,0-1.2-0.1-1.5
			c0-0.3-0.2-0.6-0.4-0.7c-0.2-0.2-0.4-0.2-0.5-0.3c-0.1,0-0.5,0-1.1-0.1c-0.2-0.2-0.3-0.6-0.2-0.9c1.9-0.1,3.4-0.4,4.5-0.9
			c0.3,0,0.4,0.1,0.4,0.3c-0.1,0.8-0.1,2-0.1,3.3v14.4c0,0.8,0.1,1.4,0.4,1.7c0.3,0.3,0.9,0.5,1.9,0.6c0.1,0.1,0.2,0.3,0.2,0.4
			c0,0.2-0.1,0.3-0.2,0.4c-1.8,0.2-3.1,0.6-3.9,1.3c-0.2,0.1-0.4,0.1-0.6,0c-0.2-0.7-0.4-1.4-0.3-1.9c0-0.1,0-0.1,0-0.1h-0.1h-0.1
			C19.1,25.2,19.1,25.2,19,25.2z M19.4,22.9v-6c0-0.5,0-0.8-0.1-1c-0.1-0.2-0.2-0.4-0.4-0.7c-0.7-0.8-1.5-1.1-2.6-1.1
			c-1.3,0-2.3,0.5-3,1.6c-0.6,0.9-0.9,2.3-0.9,4.2s0.3,3.3,1,4.3c0.7,1,1.5,1.5,2.4,1.5c0.8,0,1.8-0.5,3-1.5
			C19.2,23.8,19.4,23.4,19.4,22.9z"/>
	</g>
</g>
</svg>
