<?xml version="1.0" encoding="utf-8"?>
<!-- Generator: Adobe Illustrator 24.1.0, SVG Export Plug-In . SVG Version: 6.00 Build 0)  -->
<svg version="1.1" id="Layer_1" xmlns="http://www.w3.org/2000/svg" xmlns:xlink="http://www.w3.org/1999/xlink" x="0px" y="0px"
	 viewBox="0 0 253.4 78.3" style="enable-background:new 0 0 253.4 78.3;" xml:space="preserve">
<style type="text/css">
	.st0{fill:#66675D;}
	.st1{fill:#4297CB;}
</style>
<g>
	<g>
		<path d="M249.6,42.2c-1.3,0.4-2.5,1.1-3.6,2c-1.1,0.9-2,2-2.7,3.2c-0.7,1.3-1.1,2.7-1.1,4.3c0,1.9,0.5,3.5,1.4,4.8
			c0.9,1.2,1.9,2.4,3,3.5c1.1,1.1,2.1,2.3,3,3.6c0.9,1.3,1.4,2.9,1.4,4.8c0,1.3-0.4,2.6-1.1,3.8c-0.7,1.2-1.6,2.3-2.7,3.2
			c-1.1,0.9-2.2,1.6-3.3,2.2c-1.1,0.5-2.1,0.8-2.8,0.8c-0.5,0-1-0.1-1.3-0.4c-0.4-0.3-0.5-0.7-0.5-1.2c0-0.6,0.1-1.2,0.4-1.8
			c0.9,0,1.9,0,2.9,0c1.1,0,2-0.1,2.9-0.4c0.9-0.3,1.6-0.8,2.2-1.5c0.6-0.7,0.8-1.8,0.8-3.2c0-1.7-0.5-3.2-1.5-4.4
			c-1-1.2-2.1-2.5-3.3-3.7c-1.2-1.2-2.3-2.6-3.3-4.1c-1-1.5-1.5-3.4-1.5-5.8c0-1.4,0.3-2.6,0.8-3.8c0.6-1.2,1.3-2.2,2.3-3.1
			c0.9-0.9,2.1-1.7,3.3-2.3c1.3-0.6,2.6-1.1,4-1.5v-0.2c-3-0.8-5.4-2.1-7.4-3.9c-2-1.8-3-4.1-3-6.9c0-2.4,0.5-4.3,1.5-5.8
			c1-1.5,2.1-2.9,3.3-4.1c1.2-1.2,2.3-2.5,3.3-3.7c1-1.2,1.5-2.8,1.5-4.6c0-1.4-0.3-2.5-0.9-3.2c-0.6-0.7-1.3-1.2-2.2-1.5
			c-0.9-0.3-1.9-0.4-2.9-0.4c-1,0-2,0-2.8,0c-0.3-0.6-0.4-1.2-0.4-1.8c0-0.5,0.2-0.9,0.5-1.2c0.4-0.3,0.8-0.4,1.3-0.4
			c0.8,0,1.7,0.3,2.9,0.8c1.2,0.5,2.3,1.3,3.3,2.2c1.1,0.9,2,2,2.7,3.2c0.8,1.2,1.2,2.5,1.2,3.8c0,2-0.5,3.6-1.4,4.9
			c-0.9,1.3-1.9,2.5-3.1,3.6c-1.1,1.1-2.1,2.3-3.1,3.5c-0.9,1.2-1.4,2.8-1.4,4.8c0,1.7,0.4,3.1,1.1,4.4c0.7,1.3,1.7,2.4,2.7,3.2
			c1.1,0.8,2.3,1.5,3.6,1.9c1.3,0.4,2.6,0.7,3.8,0.7v1.1C252.2,41.5,251,41.7,249.6,42.2z"/>
	</g>
	<g>
		<path d="M3.8,39.6c1.3-0.4,2.5-1.1,3.6-2c1.1-0.9,2-2,2.7-3.2c0.7-1.3,1.1-2.7,1.1-4.3c0-1.9-0.5-3.5-1.4-4.8
			c-0.9-1.2-1.9-2.4-3-3.5s-2.1-2.3-3-3.6c-0.9-1.3-1.4-2.9-1.4-4.8c0-1.3,0.4-2.6,1.1-3.8c0.7-1.2,1.6-2.3,2.7-3.2
			c1.1-0.9,2.2-1.6,3.3-2.2c1.1-0.5,2.1-0.8,2.8-0.8c0.5,0,1,0.1,1.3,0.4c0.4,0.3,0.5,0.7,0.5,1.2c0,0.6-0.1,1.2-0.4,1.8
			c-0.9,0-1.9,0-2.9,0C9.9,6.9,9,7,8.1,7.3C7.2,7.5,6.5,8,5.9,8.7c-0.6,0.7-0.8,1.8-0.8,3.2c0,1.7,0.5,3.2,1.5,4.4
			c1,1.2,2.1,2.5,3.3,3.7c1.2,1.2,2.3,2.6,3.3,4.1c1,1.5,1.5,3.4,1.5,5.8c0,1.4-0.3,2.6-0.8,3.8C13.3,35,12.6,36,11.6,37
			c-0.9,0.9-2.1,1.7-3.3,2.3c-1.3,0.6-2.6,1.1-4,1.5v0.2c3,0.8,5.4,2.1,7.4,3.9c2,1.8,3,4.1,3,6.9c0,2.4-0.5,4.3-1.5,5.8
			c-1,1.5-2.1,2.9-3.3,4.1c-1.2,1.2-2.3,2.5-3.3,3.7c-1,1.2-1.5,2.8-1.5,4.6c0,1.4,0.3,2.5,0.9,3.2s1.3,1.2,2.2,1.5
			c0.9,0.3,1.9,0.4,2.9,0.4c1,0,2,0,2.8,0c0.3,0.6,0.4,1.2,0.4,1.8c0,0.5-0.2,0.9-0.5,1.2c-0.4,0.3-0.8,0.4-1.3,0.4
			c-0.8,0-1.7-0.3-2.9-0.8s-2.3-1.3-3.3-2.2c-1.1-0.9-2-2-2.7-3.2c-0.8-1.2-1.2-2.5-1.2-3.8c0-2,0.5-3.6,1.4-4.9
			c0.9-1.3,1.9-2.5,3.1-3.6c1.1-1.1,2.1-2.3,3.1-3.5c0.9-1.2,1.4-2.8,1.4-4.8c0-1.7-0.4-3.1-1.1-4.4c-0.7-1.3-1.7-2.4-2.7-3.2
			c-1.1-0.8-2.3-1.5-3.6-1.9c-1.3-0.4-2.6-0.7-3.8-0.7v-1.1C1.2,40.3,2.4,40.1,3.8,39.6z"/>
	</g>
	<path d="M37.5,32.1L37.5,32.1l-1.1,0.8c-1.1,0.9-2,1.4-2.7,1.7c-0.7,0.3-1.6,0.4-2.7,0.4c-1.9,0-3.5-0.4-4.6-1.3
		c-1.2-0.8-1.7-2.2-1.7-4c0-1.6,0.8-3.1,2.3-4.3c1.5-1.3,3.5-2.2,6-2.8l4.3-1.1c0.2-0.1,0.3-0.3,0.3-0.6c0-4.2-1.3-6.3-4-6.3
		c-1.1,0-2,0.2-2.9,0.5c-0.8,0.3-1.2,0.8-1.2,1.5c0,0.5,0,0.8,0.1,0.9c0.1,0.2,0.1,0.5,0.1,0.9c0,0.4-0.2,0.7-0.6,1.1
		c-0.4,0.4-0.9,0.5-1.6,0.5c-1.2,0-1.7-0.6-1.7-1.7c0-1.3,0.9-2.6,2.6-3.7c1.7-1.1,3.6-1.7,5.6-1.7c5,0,7.5,2.8,7.5,8.4v7.3
		c0,0.9,0,1.7,0.1,2.2c0,0.5,0.2,1,0.5,1.4c0.3,0.4,0.8,0.6,1.4,0.6c0.4,0,0.7-0.1,1-0.4c0.3-0.3,0.4-0.4,0.5-0.4
		c0.1,0,0.2,0.1,0.4,0.3c0.2,0.2,0.3,0.4,0.3,0.5c0,0.1-0.2,0.3-0.5,0.7c-0.3,0.3-0.9,0.7-1.6,1c-0.7,0.3-1.4,0.5-2.1,0.5
		C39.4,35,38.1,34,37.5,32.1z M37.5,23l-3.9,1c-3.1,0.8-4.7,2.6-4.7,5.5c0,0.9,0.3,1.7,0.9,2.4c0.6,0.7,1.5,1.1,2.6,1.1
		c1.2,0,2.6-0.7,4.3-2.1c0.5-0.3,0.7-0.7,0.7-1.3V23z"/>
	<path d="M49.7,34.2c-0.5-0.5-0.8-1.1-0.8-1.8c0-0.7,0.3-1.3,0.8-1.9c0.5-0.5,1.1-0.8,1.8-0.8s1.3,0.3,1.9,0.8
		c0.5,0.5,0.8,1.1,0.8,1.9c0,0.7-0.3,1.3-0.8,1.8c-0.5,0.5-1.1,0.8-1.9,0.8S50.2,34.7,49.7,34.2z"/>
	<path d="M73.9,32c-2.4,2-4.5,3-6.2,3c-2.6,0-4.7-1-6.1-2.9c-1.5-1.9-2.2-4.5-2.2-7.6c0-3.5,1.1-6.4,3.4-8.7c2.1-2,4.5-3,7.4-3
		c0.5,0,1,0.1,1.6,0.2s1.1,0.3,1.5,0.4c0.4,0.1,0.7,0.2,0.7,0.2c0.3,0,0.4-0.2,0.5-0.5V6.9c0-1.1,0-1.9-0.1-2.4
		c-0.1-0.5-0.3-0.9-0.6-1.2S73.1,3,72.9,2.9s-0.7-0.1-1.6-0.1C70.9,2.5,70.8,2,71,1.3c2.9-0.2,5.2-0.7,6.9-1.3
		c0.4,0,0.7,0.2,0.7,0.5c-0.1,1.3-0.2,3-0.2,5.2v22.4c0,1.3,0.2,2.2,0.7,2.7c0.4,0.5,1.4,0.8,2.9,0.9c0.2,0.2,0.2,0.4,0.2,0.7
		c0,0.3-0.1,0.5-0.2,0.7c-2.8,0.3-4.8,1-6,2c-0.4,0.1-0.7,0.1-0.9,0c-0.4-1.2-0.5-2.1-0.5-2.9c0-0.1,0-0.1-0.1-0.2
		c0,0-0.1-0.1-0.2-0.1c-0.1,0-0.1,0-0.2,0C74.1,31.9,74,31.9,73.9,32z M74.5,28.4V19c0-0.8-0.1-1.3-0.2-1.6
		c-0.1-0.3-0.3-0.7-0.7-1.1c-1-1.2-2.3-1.8-4-1.8c-2,0-3.5,0.8-4.6,2.5c-0.9,1.3-1.4,3.5-1.4,6.5c0,2.9,0.5,5.1,1.6,6.7
		c1.1,1.6,2.4,2.4,3.8,2.4c1.3,0,2.8-0.8,4.7-2.4C74.2,29.8,74.5,29.2,74.5,28.4z"/>
	<path d="M102,29.9c0.6,0,0.9,0.3,1,0.8c-2.2,2.9-5,4.3-8.4,4.3c-3.3,0-5.8-1.1-7.6-3.2c-1.6-1.8-2.3-4.2-2.3-7.3
		c0-3.5,1.1-6.3,3.2-8.4c2.1-2.1,4.4-3.2,6.8-3.2c5.6,0,8.3,2.8,8.3,8.5c0,0.6-0.3,0.9-0.9,0.9L89,22.2c0,2.8,0.5,5,1.6,6.8
		c1.4,2.4,3.2,3.5,5.4,3.5c1.4,0,2.5-0.2,3.4-0.6C100.2,31.6,101.1,30.9,102,29.9z M89.1,20.4l8.9-0.1c0.5,0,0.7-0.2,0.7-0.6
		c0-1.8-0.4-3.1-1.2-3.8c-0.8-0.8-1.8-1.1-2.9-1.1c-0.4,0-0.9,0.1-1.3,0.2c-0.4,0.1-0.9,0.3-1.5,0.7c-0.6,0.3-1.2,0.9-1.7,1.8
		C89.7,18.2,89.3,19.2,89.1,20.4z"/>
	<path d="M107.8,27.6c0.2-0.2,0.4-0.2,0.8-0.2c0.4,0,0.6,0.1,0.8,0.2c0.6,2.3,1.2,3.8,1.9,4.5c0.7,0.8,1.9,1.2,3.5,1.2
		c1.1,0,2-0.3,2.9-0.9c0.9-0.6,1.3-1.4,1.3-2.5c0-1.1-0.3-1.9-1-2.6c-0.7-0.6-2-1.4-4-2.2c-2-0.8-3.4-1.7-4.2-2.6s-1.2-2.3-1.2-4
		c0-1.6,0.7-2.9,2.1-4c1.4-1.1,3-1.6,4.9-1.6c0.8,0,1.6,0.1,2.4,0.2c0.8,0.1,1.6,0.3,2.5,0.4c0.9,0.2,1.4,0.3,1.7,0.3
		c0,0.4,0,1.2-0.1,2.4c-0.1,1.2-0.1,2.1-0.1,2.8c-0.2,0.2-0.4,0.2-0.8,0.2c-0.4,0-0.6-0.1-0.8-0.2c-0.2-1-0.4-1.7-0.8-2.4
		c-0.4-0.6-0.8-1.1-1.4-1.4c-0.5-0.3-1-0.5-1.4-0.5c-0.4-0.1-0.8-0.1-1.1-0.1c-0.9,0-1.7,0.3-2.4,0.8c-0.7,0.6-1.1,1.3-1.1,2.3
		c0,0.5,0.1,1,0.3,1.4c0.2,0.4,0.4,0.7,0.6,1c0.2,0.3,0.6,0.5,1.1,0.8c0.5,0.3,0.9,0.5,1.3,0.6c0.4,0.1,0.9,0.4,1.7,0.7
		c4,1.4,5.9,3.6,5.9,6.4c0,1.2-0.3,2.2-0.8,3.1c-0.6,0.9-1.3,1.5-2.1,2c-0.9,0.4-1.7,0.8-2.6,1c-0.8,0.2-1.7,0.3-2.5,0.3
		c-1.6,0-3.1-0.2-4.5-0.5c-0.2-0.1-0.6-0.1-1-0.1c-0.3,0-0.7,0.1-1.2,0.2C108.2,32.7,108,30.4,107.8,27.6z"/>
	<path d="M134.1,28.3c0,2,0.2,3.2,0.6,3.6c0.4,0.5,1.4,0.7,3,0.8c0.2,0.2,0.2,0.5,0.2,0.9c0,0.4-0.1,0.7-0.2,0.9
		c-2.8-0.1-4.7-0.1-5.5-0.1c-0.9,0-2.8,0-5.5,0.1c-0.1-0.1-0.2-0.4-0.2-0.9c0-0.4,0.1-0.7,0.2-0.9c1.6-0.1,2.6-0.4,3-0.9
		c0.4-0.4,0.6-1.6,0.6-3.6v-9.5c0-1.4-0.2-2.2-0.6-2.6c-0.4-0.4-1.3-0.6-2.6-0.7c-0.2-0.6-0.2-1-0.1-1.4c3.1-0.4,5.3-0.9,6.7-1.4
		c0.4,0,0.7,0.1,0.7,0.3c0,0.1,0,0.2,0,0.3c0,0.2,0,0.5,0,0.9c0,0.5,0,0.9-0.1,1.3c0,0.4,0,0.9,0,1.5c0,0.6,0,1.1,0,1.5V28.3z
		 M129.6,4.9c0-0.6,0.3-1.1,0.8-1.6c0.6-0.5,1.1-0.7,1.7-0.7c0.6,0,1.2,0.3,1.7,0.8c0.5,0.5,0.7,1.1,0.7,1.7c0,0.6-0.3,1.1-0.8,1.6
		c-0.5,0.5-1.1,0.8-1.8,0.8c-0.6,0-1.1-0.3-1.6-0.8C129.9,6.1,129.6,5.5,129.6,4.9z"/>
	<path d="M160.8,15.4c-0.6,0-1.1-0.3-1.4-0.9c-0.3-0.4-0.6-0.6-1-0.6c-0.3,0-0.6,0.1-1,0.4c-0.4,0.3-0.7,0.5-0.9,0.8
		c1.4,1.4,2.1,3.2,2.1,5.1c0,2.3-0.8,4.1-2.4,5.5c-1.6,1.4-3.6,2-5.9,2c-1.8,0-3.3-0.3-4.5-1c-0.5,0.8-0.8,1.8-0.8,2.9
		c0,0.9,0.3,1.7,0.9,2.1c0.6,0.5,1.3,0.7,2.1,0.7l1.5-0.1c1.3-0.2,2.4-0.2,3.3-0.2c3.5,0,5.9,0.5,7.2,1.6c1.4,1.2,2.2,2.5,2.2,4
		c0,1.7-0.7,3.2-2.1,4.6c-1.4,1.3-3.1,2.3-5.2,3c-2.1,0.6-4.3,1-6.5,1c-2.2,0-4-0.4-5.5-1.3c-1.5-0.9-2.2-2.3-2.2-4.3
		c0-2.4,1.3-4.4,4-6c-1.5-0.8-2.3-2-2.3-3.8c0-0.9,0.2-1.8,0.6-2.7c0.4-0.9,0.9-1.7,1.6-2.2c-1.7-1.6-2.6-3.5-2.6-5.5
		c0-2.2,0.8-4,2.5-5.4c1.7-1.4,3.6-2.1,5.8-2.1c2,0,3.8,0.5,5.1,1.4c0.6-0.8,1.4-1.4,2.4-1.8c1-0.4,1.8-0.7,2.6-0.7
		c0.7,0,1.2,0.2,1.6,0.5c0.4,0.3,0.6,0.8,0.6,1.3c0,0.5-0.2,0.9-0.6,1.3C161.7,15.2,161.3,15.4,160.8,15.4z M145.5,35
		c-1,1.2-1.4,2.8-1.4,4.7c0,1.5,0.7,2.7,2,3.5c1.4,0.9,2.6,1.3,3.8,1.3c1.5,0,3-0.2,4.5-0.6c1.4-0.4,2.7-1,3.7-1.9
		c1-0.9,1.5-1.8,1.5-3c0-0.6-0.2-1.2-0.5-1.6c-0.4-0.4-1-0.9-2-1.5c-1-0.6-3-0.8-5.9-0.8c-0.2,0-0.7,0-1.5,0.1
		c-0.8,0-1.5,0.1-2.1,0.1C146.7,35.2,146.1,35.1,145.5,35z M154.7,20.7c0-2-0.4-3.6-1.2-4.7c-0.8-1.1-2-1.7-3.6-1.7
		c-2.6,0-4,1.8-4,5.3c0,0.9,0,1.7,0.1,2.4c0.1,0.7,0.3,1.4,0.6,2.1c0.3,0.7,0.8,1.2,1.4,1.6c0.6,0.4,1.5,0.6,2.4,0.6
		C153.3,26.2,154.7,24.4,154.7,20.7z"/>
	<path d="M173.3,16.8c2.4-2.7,5.1-4,8.1-4c1.9,0,3.2,0.6,4.1,1.7c0.9,1.2,1.3,3.4,1.3,6.6v7.3c0,1.9,0.2,3.1,0.6,3.6
		c0.4,0.5,1.3,0.8,2.7,0.9c0.1,0.1,0.2,0.4,0.2,0.9c0,0.4-0.1,0.7-0.2,0.9c-2.8-0.1-4.6-0.1-5.2-0.1c-0.6,0-2.3,0-5,0.1
		c-0.1-0.1-0.2-0.4-0.2-0.9c0-0.4,0.1-0.7,0.2-0.9c1.4-0.1,2.2-0.4,2.5-0.9c0.3-0.5,0.5-1.7,0.5-3.6v-7.4c0-1.7-0.2-3-0.6-3.8
		c-0.6-1.2-1.5-1.8-2.6-1.8c-2,0-4,1-6,2.9c-0.6,0.6-0.8,1.3-0.8,2.1v8c0,1.9,0.2,3.1,0.5,3.6c0.3,0.5,1.2,0.8,2.5,0.9
		c0.2,0.2,0.2,0.5,0.3,0.9c0,0.4-0.1,0.7-0.3,0.9c-2.8-0.1-4.4-0.1-4.9-0.1c-0.9,0-2.7,0-5.4,0.1c-0.1-0.1-0.2-0.4-0.2-0.9
		c0-0.4,0.1-0.7,0.2-0.9c1.5-0.1,2.5-0.4,2.9-0.9c0.4-0.4,0.6-1.6,0.6-3.6v-9.5c0-1.4-0.2-2.2-0.6-2.6s-1.3-0.6-2.7-0.7
		c-0.2-0.6-0.2-1-0.1-1.4c2.6-0.3,4.7-0.8,6.2-1.4c0.3,0,0.5,0.1,0.6,0.4c0.3,0.6,0.4,1.8,0.4,3.7C172.9,17.2,173,17.2,173.3,16.8z"
		/>
	<path d="M210.6,29.9c0.6,0,0.9,0.3,1,0.8c-2.2,2.9-5,4.3-8.4,4.3c-3.3,0-5.8-1.1-7.6-3.2c-1.6-1.8-2.3-4.2-2.3-7.3
		c0-3.5,1.1-6.3,3.2-8.4c2.1-2.1,4.4-3.2,6.8-3.2c5.6,0,8.3,2.8,8.3,8.5c0,0.6-0.3,0.9-0.9,0.9l-13.1-0.1c0,2.8,0.5,5,1.6,6.8
		c1.4,2.4,3.2,3.5,5.4,3.5c1.4,0,2.5-0.2,3.4-0.6C208.8,31.6,209.7,30.9,210.6,29.9z M197.7,20.4l8.9-0.1c0.5,0,0.7-0.2,0.7-0.6
		c0-1.8-0.4-3.1-1.2-3.8c-0.8-0.8-1.8-1.1-2.9-1.1c-0.4,0-0.9,0.1-1.3,0.2c-0.4,0.1-0.9,0.3-1.5,0.7c-0.6,0.3-1.2,0.9-1.7,1.8
		C198.3,18.2,197.9,19.2,197.7,20.4z"/>
	<path d="M222.9,16.8c0,0.2,0,0.3,0.1,0.3c0,0.1,0.2,0,0.3-0.2c0.7-1.1,1.5-2.1,2.4-2.9c1-0.8,2-1.2,3-1.2c0.9,0,1.7,0.3,2.2,0.8
		c0.5,0.5,0.8,1,0.8,1.6c0,0.6-0.2,1.2-0.7,1.7c-0.5,0.5-1,0.8-1.6,0.8c-0.2,0-0.5-0.1-0.7-0.2c-0.2-0.1-0.4-0.2-0.5-0.3
		s-0.3-0.3-0.4-0.5c-0.2-0.2-0.3-0.4-0.4-0.4c-0.2-0.2-0.6-0.3-1-0.3c-0.4,0-1.2,0.8-2.3,2.4c-0.8,1.2-1.2,2.3-1.2,3.3v6.8
		c0,2,0.2,3.2,0.7,3.6c0.4,0.4,1.6,0.7,3.4,0.9c0.2,0.2,0.2,0.5,0.2,0.9c0,0.4-0.1,0.7-0.2,0.9c-2.8-0.1-4.8-0.1-6-0.1
		c-1,0-2.9,0-5.6,0.1c-0.1-0.1-0.2-0.4-0.2-0.9c0-0.4,0.1-0.7,0.2-0.9c1.6-0.1,2.6-0.4,3-0.8c0.4-0.5,0.6-1.7,0.6-3.6v-9.5
		c0-1.4-0.2-2.2-0.6-2.6c-0.4-0.4-1.3-0.6-2.6-0.7c-0.2-0.6-0.2-1-0.1-1.4c2.6-0.3,4.6-0.8,6.2-1.4c0.3,0,0.4,0.1,0.6,0.4
		C222.7,13.6,222.9,14.9,222.9,16.8z"/>
	<g>
		<path d="M32.1,56.1c-1.1,0.1-1.8,0.3-2,0.8c-0.2,0.5,0,1.3,0.5,2.5l4,10.1c0.2,0.6,0.4,0.9,0.5,1c0.1,0.1,0.2,0.1,0.3,0
			c0.1-0.1,0.3-0.5,0.5-1.1l3.5-8.7L39,59.9c0-0.1-0.1-0.3-0.2-0.5c-0.2-0.6-0.4-1.1-0.6-1.4c-0.1-0.3-0.3-0.6-0.6-1
			c-0.3-0.4-0.6-0.6-1-0.8c-0.4-0.2-0.9-0.3-1.4-0.3c-0.1-0.1-0.2-0.4-0.2-0.9c0-0.4,0.1-0.7,0.2-0.9c2.4,0.1,3.9,0.1,4.3,0.1
			c0.9,0,2.5,0,4.9-0.1c0.1,0.2,0.2,0.5,0.2,0.9c0,0.4-0.1,0.7-0.2,0.9c-1.3,0.1-2,0.3-2.2,0.7c-0.2,0.4-0.1,1.1,0.4,2.3L47,69.8
			c0.2,0.6,0.4,0.9,0.5,0.9c0.1,0,0.2-0.1,0.3-0.3c0,0,0.1-0.3,0.3-0.8l4.1-10.2c0.2-0.4,0.3-0.8,0.4-1c0.1-0.2,0.1-0.5,0.1-0.8
			c0-0.3-0.1-0.6-0.3-0.7c-0.2-0.2-0.5-0.3-0.9-0.5s-1-0.2-1.7-0.3c-0.2-0.1-0.2-0.4-0.2-0.9c0-0.4,0.1-0.7,0.2-0.9
			c2.4,0.1,4.2,0.1,5.1,0.1c0.7,0,1.8,0,3.4-0.1c0.2,0.2,0.2,0.5,0.3,0.9c0,0.4-0.1,0.7-0.3,0.9c-1.2,0.1-2,0.4-2.6,0.9
			c-0.6,0.6-1.1,1.4-1.6,2.6l-6.4,15.6c-0.3,0.7-0.6,1-1.1,1c-0.5,0-0.9-0.3-1.2-1L40.3,63l-5,12.1c-0.3,0.7-0.7,1.1-1.2,1.1
			c-0.5,0-0.9-0.3-1.2-1l-6.5-15.8c-0.5-1.3-1-2.1-1.5-2.5c-0.5-0.4-1.3-0.6-2.4-0.8c-0.2-0.1-0.2-0.4-0.3-0.9
			c0-0.4,0.1-0.7,0.3-0.9c1.7,0.1,3.1,0.1,4.3,0.1c1,0,2.7,0,5.1-0.1c0.2,0.2,0.2,0.5,0.2,0.9C32.3,55.6,32.2,55.9,32.1,56.1z"/>
		<path d="M67,61.4v8c0,1.4,0.1,2.4,0.3,2.9c0.2,0.6,0.4,1,0.8,1.1c0.4,0.2,1,0.3,1.9,0.4c0.1,0.2,0.2,0.5,0.2,0.9
			c0,0.4-0.1,0.7-0.2,0.9c-2.8-0.1-4.4-0.1-4.9-0.1c-0.9,0-2.7,0-5.4,0.1c-0.1-0.2-0.2-0.5-0.2-0.9c0-0.4,0.1-0.7,0.2-0.9
			c0.8-0.1,1.4-0.1,1.8-0.2c0.4-0.1,0.7-0.3,1-0.6c0.3-0.3,0.5-0.7,0.6-1.3c0.1-0.5,0.1-1.3,0.1-2.4V47.9c0-1.1,0-1.8-0.1-2.4
			c0-0.5-0.3-0.9-0.6-1.1c-0.4-0.2-0.6-0.4-0.8-0.4c-0.2,0-0.7-0.1-1.6-0.1c-0.4-0.4-0.5-0.9-0.3-1.5c2.9-0.2,5.2-0.7,6.9-1.3
			c0.4,0,0.6,0.2,0.6,0.5c-0.1,1.3-0.2,3-0.2,5.2l0,11.1c0,0.4,0.2,0.4,0.5,0c2.4-2.7,5.2-4,8.4-4c1.9,0,3.2,0.6,4.1,1.7
			c0.9,1.1,1.3,3.3,1.3,6.6v7.3c0,1.9,0.2,3.1,0.6,3.6c0.4,0.5,1.3,0.8,2.7,0.9c0.1,0.1,0.2,0.4,0.2,0.9c0,0.4-0.1,0.7-0.2,0.9
			c-2.8-0.1-4.6-0.1-5.2-0.1c-0.6,0-2.3,0-5,0.1c-0.1-0.1-0.2-0.4-0.2-0.9c0-0.4,0.1-0.7,0.2-0.9c1.3-0.1,2.2-0.4,2.5-0.9
			c0.3-0.5,0.5-1.7,0.5-3.6V62c0-1.7-0.2-3-0.6-3.8c-0.6-1.2-1.5-1.8-2.6-1.8c-2.2,0-4.3,1-6.3,2.9C67.3,59.9,67,60.6,67,61.4z"/>
		<path d="M87.2,65.4c0-3.3,0.9-6,2.7-8.1c2-2.3,4.5-3.4,7.7-3.4c2.4,0,4.4,0.6,6,1.7c1.6,1.2,2.8,2.6,3.4,4.2c0.6,1.6,1,3.3,1,5.2
			c0,3.4-1.1,6.2-3.2,8.3c-1.9,1.9-4.3,2.8-7.3,2.8c-3.3,0-5.8-1.1-7.7-3.2C88.1,70.7,87.2,68.2,87.2,65.4z M96.9,55.7
			c-3.6,0-5.5,2.9-5.5,8.6c0,1.1,0.1,2.1,0.4,3.2c0.2,1.1,0.6,2.1,1.1,3.2c0.5,1,1.2,1.9,2.1,2.6c0.9,0.7,2,1,3.2,1
			c1.4,0,2.7-0.6,3.8-1.8c1.1-1.2,1.7-3.2,1.7-5.9c0-3.5-0.6-6.2-1.8-8.1C100.7,56.6,99,55.7,96.9,55.7z"/>
	</g>
	<path class="st0" d="M133,59.2l-11.5,4.3l11.5,4.3v2.5l-14.3-5.7v-2.2l14.3-5.7V59.2z"/>
	<path class="st1" d="M148.5,71.5c-0.7,0.4-1.4,0.7-2.1,0.9c-0.7,0.2-1.4,0.3-2.2,0.3c-2.3,0-4.2-0.7-5.5-2.1c-1.3-1.4-2-3.4-2-5.8
		s0.7-4.4,2-5.8c1.3-1.4,3.2-2.1,5.5-2.1c0.7,0,1.4,0.1,2.1,0.3s1.4,0.5,2.1,0.9v2.6c-0.7-0.6-1.3-1-2-1.3s-1.4-0.4-2.3-0.4
		c-1.6,0-2.8,0.5-3.6,1.5c-0.8,1-1.3,2.5-1.3,4.3c0,1.9,0.4,3.3,1.3,4.3c0.8,1,2,1.5,3.6,1.5c0.9,0,1.6-0.1,2.3-0.4
		c0.7-0.3,1.3-0.7,1.9-1.2V71.5z"/>
	<path class="st1" d="M159.2,56.7c2.1,0,3.7,0.7,4.8,2c1.1,1.4,1.7,3.3,1.7,5.9c0,2.6-0.6,4.6-1.7,5.9c-1.1,1.4-2.7,2-4.8,2
		c-2.1,0-3.7-0.7-4.8-2c-1.1-1.4-1.7-3.3-1.7-5.9c0-2.6,0.6-4.6,1.7-5.9C155.5,57.4,157.1,56.7,159.2,56.7z M159.2,58.8
		c-1.3,0-2.2,0.5-2.9,1.5c-0.6,1-1,2.4-1,4.4c0,1.9,0.3,3.4,1,4.4c0.6,1,1.6,1.5,2.9,1.5c1.3,0,2.2-0.5,2.9-1.5c0.6-1,1-2.4,1-4.4
		c0-1.9-0.3-3.4-1-4.4C161.4,59.3,160.5,58.8,159.2,58.8z"/>
	<path class="st1" d="M179.2,59v-7.8h2.5v21.1h-2.5v-1.9c-0.4,0.7-1,1.3-1.7,1.7c-0.7,0.4-1.5,0.6-2.4,0.6c-1.8,0-3.3-0.7-4.3-2.1
		c-1.1-1.4-1.6-3.4-1.6-5.9c0-2.5,0.5-4.4,1.6-5.8c1.1-1.4,2.5-2.1,4.3-2.1c0.9,0,1.7,0.2,2.4,0.6C178.2,57.7,178.8,58.3,179.2,59z
		 M171.8,64.7c0,1.9,0.3,3.4,0.9,4.4c0.6,1,1.5,1.5,2.7,1.5s2.1-0.5,2.7-1.5c0.6-1,0.9-2.4,0.9-4.4c0-1.9-0.3-3.4-0.9-4.4
		c-0.6-1-1.5-1.5-2.7-1.5s-2.1,0.5-2.7,1.5C172.2,61.3,171.8,62.7,171.8,64.7z"/>
	<path class="st1" d="M199.4,63.4v1.2h-10.8v0.1c-0.1,2.1,0.3,3.6,1.2,4.5c0.9,0.9,2.1,1.4,3.6,1.4c0.8,0,1.6-0.1,2.5-0.4
		s1.8-0.6,2.8-1.2v2.5c-0.9,0.4-1.9,0.7-2.7,0.9c-0.9,0.2-1.7,0.3-2.6,0.3c-2.4,0-4.2-0.7-5.5-2.1c-1.3-1.4-2-3.4-2-5.8
		c0-2.4,0.6-4.4,2-5.8c1.3-1.4,3-2.2,5.2-2.2c1.9,0,3.5,0.7,4.6,2C198.8,60,199.3,61.6,199.4,63.4z M196.9,62.7
		c-0.1-1-0.5-2-1.1-2.7c-0.7-0.8-1.6-1.1-2.8-1.1c-1.2,0-2.2,0.4-3,1.2c-0.8,0.8-1.2,1.7-1.3,2.7L196.9,62.7z"/>
	<path class="st1" d="M214.1,57.6V60c-0.7-0.4-1.4-0.7-2.2-0.9c-0.7-0.2-1.5-0.3-2.2-0.3c-1.1,0-2,0.2-2.5,0.5
		c-0.6,0.4-0.8,0.9-0.8,1.7c0,0.7,0.2,1.2,0.6,1.5c0.4,0.3,1.4,0.7,3.1,1l1,0.2c1.2,0.2,2.2,0.7,2.8,1.4c0.6,0.7,1,1.6,1,2.7
		c0,1.5-0.5,2.7-1.6,3.5c-1.1,0.8-2.5,1.3-4.4,1.3c-0.7,0-1.5-0.1-2.4-0.2c-0.8-0.2-1.7-0.4-2.7-0.7v-2.6c0.9,0.5,1.8,0.8,2.7,1.1
		c0.8,0.2,1.7,0.4,2.4,0.4c1.1,0,2-0.2,2.6-0.7c0.6-0.4,0.9-1.1,0.9-1.9c0-1.2-1.1-2-3.3-2.4l-0.1,0l-0.9-0.2
		c-1.4-0.3-2.5-0.8-3.1-1.4c-0.7-0.7-1-1.6-1-2.7c0-1.5,0.5-2.6,1.5-3.4c1-0.8,2.4-1.2,4.2-1.2c0.8,0,1.6,0.1,2.3,0.2
		C212.7,57.1,213.4,57.3,214.1,57.6z"/>
	<path class="st0" d="M218.8,59.2v-2.5l14.3,5.7v2.2l-14.3,5.7v-2.5l11.5-4.3L218.8,59.2z"/>
</g>
</svg>
