<?xml version="1.0" encoding="utf-8"?>
<!-- Generator: Adobe Illustrator 24.1.0, SVG Export Plug-In . SVG Version: 6.00 Build 0)  -->
<svg version="1.1" id="Layer_1" xmlns="http://www.w3.org/2000/svg" xmlns:xlink="http://www.w3.org/1999/xlink" x="0px" y="0px"
	 viewBox="0 0 3200 1260" style="enable-background:new 0 0 3200 1260;" xml:space="preserve">
<style type="text/css">
	.st0{fill:#052D49;}
</style>
<g>
	<g>
		<rect x="3021.2" y="95.9" class="st0" width="78.4" height="1068.6"/>
	</g>
	<g>
		<path class="st0" d="M99.6,452.1h141.8c75,0,123.4,56.6,123.4,122.4s-48.4,122.4-123.4,122.4H178v93.9H99.6V452.1z M286,574.5
			c0-31.5-21.3-58.6-54.2-58.6H178v117.1h53.7C264.7,633.1,286,606,286,574.5z"/>
		<path class="st0" d="M664.9,790.8l-13.1-41.1H531.3l-13.1,41.1h-83.7l121-338.8h72.1l122.4,338.8H664.9z M591.8,548.9l-41.6,139.4
			h82.3L591.8,548.9z"/>
		<path class="st0" d="M881.7,519.8h-76.4v-67.7H1037v67.7h-77v271h-78.4V519.8z"/>
		<path class="st0" d="M1159,452.1h142.3c75,0,123.4,56.6,123.4,122.4c0,47.4-25.2,89.5-67.3,109.4l67.8,106.9h-91l-60-93.9h-36.8
			v93.9H1159V452.1z M1345.3,574.5c0-31.5-21.3-58.6-54.2-58.6h-53.7v117.1h53.7C1324,633.1,1345.3,606,1345.3,574.5z"/>
		<path class="st0" d="M1636.2,515v76.9h128.2v61.5h-128.2v74.5h128.2v62.9h-206.6V452.1h206.6V515H1636.2z"/>
		<path class="st0" d="M1891.7,621.5c0-92.9,66.8-178.1,179.6-178.1c112.3,0,179.1,85.2,179.1,178.1s-66.8,178.1-179.1,178.1
			C1958.5,799.6,1891.7,714.4,1891.7,621.5z M2170.5,621.5c0-55.7-37.8-107.4-99.2-107.4c-61.9,0-99.2,51.8-99.2,107.4
			c0,55.7,37.3,107.4,99.2,107.4C2132.7,728.9,2170.5,677.1,2170.5,621.5z"/>
		<path class="st0" d="M2584.7,672.8V452.1h77.9v338.8h-81.8l-122-217.8v217.8h-78.4V452.1h81.8L2584.7,672.8z"/>
	</g>
</g>
</svg>
